<?xml version="1.0" standalone="no"?>
<!DOCTYPE svg PUBLIC "-//W3C//DTD SVG 20010904//EN"
 "http://www.w3.org/TR/2001/REC-SVG-20010904/DTD/svg10.dtd">
<svg version="1.0" xmlns="http://www.w3.org/2000/svg"
 width="496.000000pt" height="496.000000pt" viewBox="0 0 496.000000 496.000000"
 preserveAspectRatio="xMidYMid meet">
<metadata>
Created by potrace 1.14, written by Peter Selinger 2001-2017
</metadata>
<g transform="translate(0.000000,496.000000) scale(0.100000,-0.100000)"
fill="#000000" stroke="none">
<path d="M2522 4905 c-18 -15 -32 -31 -32 -37 0 -5 -13 -20 -29 -33 -15 -14
-40 -48 -54 -77 -14 -29 -47 -98 -73 -153 -27 -55 -54 -106 -61 -113 -7 -7
-13 -19 -13 -27 0 -7 -3 -15 -7 -17 -5 -1 -17 -21 -28 -43 -11 -22 -27 -41
-37 -43 -20 -4 -76 52 -102 101 -21 41 -163 187 -182 187 -7 0 -14 4 -16 9 -5
13 -79 61 -95 61 -13 0 -14 -22 -9 -142 3 -79 9 -175 12 -214 4 -53 2 -73 -8
-82 -10 -8 -196 -12 -683 -12 -537 -1 -683 -4 -744 -16 -41 -8 -78 -18 -81
-23 -3 -4 -24 -11 -46 -14 -44 -7 -138 -51 -164 -77 -8 -8 -28 -24 -43 -35
-28 -20 -28 -20 -25 -128 l3 -109 29 39 c41 55 162 142 253 183 l78 35 705 5
c388 3 717 1 731 -3 19 -6 29 -17 33 -38 8 -41 -7 -66 -46 -74 -49 -10 -131
-35 -150 -46 -10 -5 -25 -9 -34 -9 -36 0 -189 -79 -306 -158 l-67 -45 -63 31
c-35 17 -97 50 -138 73 -41 23 -108 59 -149 81 -41 21 -111 61 -155 87 -109
66 -120 68 -150 36 -43 -46 -47 -201 -11 -372 49 -233 190 -393 346 -393 21 0
41 -5 44 -11 7 -11 -11 -128 -25 -165 -8 -20 -49 -268 -85 -514 -13 -85 -18
-195 -20 -430 -1 -196 -8 -377 -18 -480 -9 -91 -21 -248 -26 -350 -6 -102 -15
-234 -20 -295 -14 -151 -33 -429 -38 -554 -4 -83 -8 -107 -21 -118 -23 -17
-209 -17 -294 1 -142 30 -228 75 -333 178 l-70 67 -3 -196 -2 -197 26 -23 c15
-13 33 -23 41 -23 7 0 13 -4 13 -9 0 -5 13 -12 30 -16 16 -4 30 -10 30 -13 0
-15 118 -71 160 -77 25 -4 54 -10 65 -14 72 -29 137 -31 975 -31 562 0 861 3
865 10 7 12 651 14 658 3 3 -5 97 -7 209 -5 253 3 209 3 900 -3 622 -6 602 -8
711 46 23 11 69 29 101 40 61 21 164 83 172 103 3 7 3 91 2 188 l-3 177 -42
-39 c-96 -88 -181 -132 -308 -161 -100 -23 -267 -26 -284 -5 -12 14 -17 72
-40 416 -6 80 -15 186 -20 235 -6 50 -16 158 -22 240 -18 236 -26 324 -49 565
-13 127 -26 351 -30 515 -4 160 -11 306 -14 325 -3 19 -11 91 -16 160 -14 181
-27 277 -51 372 -35 137 -36 134 50 170 123 52 209 154 266 317 11 33 15 88
15 225 0 99 4 187 9 195 7 11 29 13 108 9 54 -4 112 -12 128 -18 17 -7 49 -21
72 -31 24 -11 45 -19 48 -19 3 0 46 -32 95 -70 l90 -70 0 95 0 94 -37 26 c-21
14 -43 25 -49 25 -6 0 -17 7 -24 15 -7 8 -21 15 -31 15 -11 0 -19 4 -19 9 0 5
-15 13 -32 16 -18 4 -37 11 -43 15 -5 4 -32 11 -60 15 -27 4 -59 12 -70 18
-14 9 -207 13 -665 17 l-645 5 -3 223 c-2 198 -4 222 -19 222 -21 0 -61 -32
-156 -124 -43 -42 -80 -76 -82 -76 -6 0 -45 -38 -45 -44 0 -2 -12 -18 -27 -35
-41 -47 -103 -36 -103 18 0 11 -6 26 -14 33 -7 8 -17 25 -20 38 -11 37 -98
214 -108 218 -4 2 -8 10 -8 18 0 8 -4 14 -8 14 -5 0 -18 19 -30 43 -47 94 -89
115 -140 72z m76 -139 c12 -24 22 -46 22 -50 0 -4 19 -39 42 -79 41 -72 80
-142 114 -207 11 -19 21 -37 24 -40 3 -3 14 -21 24 -40 25 -47 46 -70 63 -70
7 0 84 70 170 156 129 129 159 153 161 136 2 -12 -6 -88 -17 -170 -12 -81 -21
-161 -21 -177 0 -17 -7 -61 -17 -99 l-16 -68 -71 6 c-39 4 -107 12 -151 18
-94 13 -776 4 -895 -12 -41 -5 -82 -8 -91 -5 -18 6 -27 50 -59 290 -19 147
-23 192 -21 228 1 21 -7 29 106 -97 44 -50 94 -104 110 -122 17 -18 43 -48 58
-68 49 -63 90 -42 152 80 11 21 23 41 26 44 12 9 149 233 149 242 0 24 84 148
99 148 11 0 26 -18 39 -44z m1638 -671 c-27 -19 -62 -40 -78 -47 -15 -7 -28
-16 -28 -20 0 -5 -6 -8 -14 -8 -8 0 -21 -6 -28 -13 -7 -7 -49 -30 -93 -52 -44
-21 -81 -42 -83 -47 -2 -4 -7 -8 -12 -8 -5 0 -39 -18 -78 -40 -38 -22 -80 -40
-93 -40 -13 0 -44 12 -69 26 -115 66 -150 84 -164 84 -9 0 -16 4 -16 9 0 5
-15 12 -32 16 -38 8 -121 32 -161 47 -15 6 -32 19 -38 30 -12 22 -2 79 15 90
6 4 238 8 516 8 l505 0 -49 -35z m110 -72 c34 -45 -9 -287 -68 -388 -10 -16
-22 -41 -28 -53 -16 -36 -60 -76 -124 -112 -48 -28 -61 -31 -81 -22 -14 6 -28
24 -31 39 -12 46 -79 141 -140 197 -65 60 -66 73 -7 103 39 20 146 81 198 114
17 10 37 22 45 26 8 3 17 9 20 12 3 3 28 17 55 30 28 14 52 27 55 30 13 16 57
40 74 40 10 1 25 -7 32 -16z m-1491 -43 c55 -6 150 -15 210 -20 114 -10 136
-15 270 -57 70 -22 145 -57 145 -68 0 -3 -66 -3 -147 -2 -165 2 -221 -8 -315
-56 -98 -50 -213 -193 -233 -288 -9 -47 -27 -102 -37 -113 -13 -16 -9 -39 10
-64 l18 -24 16 24 c8 13 19 44 22 68 17 113 106 258 198 325 23 17 80 42 132
59 75 24 256 22 326 -4 101 -38 110 -42 110 -51 0 -5 6 -9 13 -9 22 0 142
-131 166 -180 36 -75 45 -120 45 -240 0 -133 -11 -179 -58 -252 -36 -57 -56
-77 -127 -125 -96 -66 -234 -98 -345 -81 -147 23 -167 34 -235 133 -19 27 -58
74 -86 104 -43 45 -53 51 -53 33 0 -11 5 -24 11 -28 6 -3 8 -15 6 -26 -3 -11
-3 -17 0 -14 10 10 33 -15 33 -36 0 -12 -6 -18 -17 -16 -11 2 -18 -3 -18 -12
0 -10 12 -16 37 -18 39 -3 55 -25 44 -60 -4 -11 3 -24 19 -36 27 -21 34 -56
10 -56 -28 0 -15 -28 15 -35 21 -5 30 -13 30 -26 0 -11 5 -29 11 -40 8 -16 7
-25 -7 -40 -22 -24 -26 -24 -58 6 -32 30 -39 31 -31 6 10 -32 -19 -39 -170
-42 -191 -4 -635 0 -660 5 -11 2 -41 5 -67 5 -36 1 -48 5 -48 16 0 29 42 145
57 161 9 9 18 38 21 65 4 47 14 60 27 39 10 -16 35 -12 35 5 0 9 -7 15 -17 13
-29 -5 -25 27 7 59 20 20 28 36 24 46 -3 10 -10 17 -14 17 -13 0 -60 -41 -60
-53 0 -7 -14 -27 -30 -46 -17 -18 -30 -38 -30 -43 0 -9 -9 -22 -51 -69 -14
-16 -29 -29 -34 -29 -4 0 -21 -6 -38 -14 -44 -18 -143 -36 -205 -36 -86 0
-226 35 -263 67 -8 7 -19 13 -23 13 -24 0 -149 130 -170 177 -9 21 -21 45 -26
54 -19 36 -32 146 -25 219 18 192 126 355 289 434 95 46 153 58 261 53 157 -6
267 -48 355 -136 70 -70 140 -215 140 -291 0 -16 4 -31 9 -34 12 -8 25 124 16
166 -29 146 -190 295 -365 339 -103 26 -297 13 -403 -27 -81 -31 -90 -10 -15
36 89 55 234 98 403 120 39 5 108 15 155 21 174 24 579 29 785 9z m-2119 -47
c105 -65 217 -128 304 -174 121 -63 122 -67 51 -142 -36 -38 -58 -74 -80 -132
-17 -44 -31 -87 -31 -97 0 -28 -41 -31 -106 -7 -90 33 -148 100 -204 234 -27
64 -60 221 -60 284 0 82 33 91 126 34z m542 -325 c-24 -35 -52 -83 -62 -108
-10 -25 -22 -54 -27 -65 -4 -11 -15 -57 -23 -103 -14 -75 -14 -92 0 -160 24
-118 61 -218 88 -242 9 -7 16 -18 16 -24 0 -17 112 -119 151 -137 107 -50 100
-49 321 -49 l210 0 -7 -22 c-4 -13 -9 -39 -12 -58 -7 -44 -21 -63 -42 -55 -9
4 -81 11 -159 16 -79 4 -158 13 -175 18 -18 6 -63 15 -102 21 -131 20 -174 28
-211 40 -20 7 -58 13 -85 13 -52 1 -73 -15 -104 -78 -44 -92 -58 -316 -29
-492 21 -127 84 -320 134 -407 22 -38 40 -72 40 -76 0 -4 9 -15 20 -25 11 -10
20 -22 20 -27 0 -10 0 -11 78 -103 86 -101 223 -225 250 -225 6 0 12 -4 14 -9
3 -9 171 -97 223 -118 87 -33 224 -74 278 -83 34 -5 202 -10 372 -10 171 0
319 -3 331 -6 20 -5 22 -14 28 -157 9 -202 33 -267 126 -349 l42 -38 255 0
256 0 62 55 c89 78 96 98 106 293 11 228 -16 420 -68 483 -23 28 -14 53 45
114 56 59 152 178 152 189 0 3 17 34 38 68 65 110 77 138 135 323 l32 100 0
255 c0 230 -2 259 -19 295 -43 91 -79 121 -126 103 -69 -26 -281 -77 -415 -99
-33 -6 -76 -15 -95 -21 -19 -5 -67 -10 -105 -11 l-70 -2 -3 73 -3 72 184 -1
184 -1 67 31 c103 49 157 101 220 214 l40 72 4 169 c4 161 -7 256 -28 256 -4
0 -10 9 -13 20 -7 29 21 26 32 -3 5 -13 16 -29 26 -37 43 -36 97 -211 130
-420 9 -58 21 -130 26 -160 5 -30 14 -106 19 -167 6 -62 15 -164 21 -225 13
-139 4 -460 -17 -583 -16 -96 -58 -237 -80 -270 -8 -11 -14 -27 -14 -36 0 -9
-7 -22 -15 -29 -18 -15 -20 -50 -2 -50 6 1 32 26 57 56 81 101 77 97 84 78 4
-9 11 -85 17 -168 10 -152 31 -411 49 -606 32 -348 42 -523 28 -531 -7 -5
-762 -7 -1678 -6 l-1665 2 -3 70 c-4 83 15 532 28 660 5 50 14 164 20 255 14
228 27 351 38 362 5 5 22 -12 39 -40 17 -26 43 -60 57 -75 14 -16 26 -32 26
-38 0 -5 7 -9 15 -9 7 0 19 -8 24 -17 9 -16 10 -16 11 -2 0 9 -18 55 -41 103
-66 141 -76 190 -99 476 -19 225 0 677 35 870 22 119 58 278 66 292 5 10 9 26
9 36 0 25 73 170 107 212 51 63 142 145 151 136 2 -3 -16 -33 -40 -68z m2242
-1010 c0 -17 -52 -60 -107 -87 -26 -13 -56 -28 -67 -33 -34 -18 -171 -58 -261
-78 -202 -45 -544 -57 -935 -32 -284 18 -420 45 -560 111 -19 9 -39 20 -45 24
-5 4 -19 14 -29 21 -13 9 -17 19 -12 31 6 16 15 17 74 11 37 -4 123 -11 192
-17 69 -5 150 -14 180 -19 90 -15 627 -22 880 -12 185 8 258 16 345 35 61 13
144 30 185 37 41 7 80 14 85 15 26 8 75 4 75 -7z m-1954 -218 c60 -22 72 -91
94 -540 6 -118 14 -228 19 -245 5 -16 12 -51 16 -77 3 -26 10 -50 16 -53 5 -4
9 -16 9 -28 1 -38 29 -62 120 -101 150 -65 407 -105 709 -109 120 -2 223 -7
228 -10 19 -12 27 -87 11 -103 -34 -35 -413 -44 -578 -14 -274 48 -460 117
-634 235 -61 41 -186 161 -234 225 -15 19 -37 46 -49 59 -41 46 -93 160 -93
205 1 98 80 321 149 416 39 54 123 129 156 139 17 5 30 10 31 10 1 1 14 -4 30
-9z m1981 -72 c18 -13 35 -30 38 -38 3 -8 19 -30 35 -49 30 -34 113 -194 146
-281 29 -78 29 -150 1 -206 -35 -68 -110 -166 -185 -241 -54 -53 -69 -63 -98
-63 -20 0 -43 4 -52 9 -9 5 -48 12 -86 15 -74 6 -108 24 -89 48 36 44 110 356
134 558 17 149 43 242 73 262 20 14 49 8 83 -14z"/>
<path d="M3229 3561 c-31 -9 -73 -29 -92 -45 -59 -47 -117 -176 -108 -241 7
-61 44 -144 79 -178 57 -55 95 -67 218 -67 107 0 108 0 160 36 80 55 97 99 92
234 -4 110 -15 145 -60 193 -35 37 -70 56 -132 72 -68 18 -84 18 -157 -4z"/>
<path d="M1638 3520 c-93 -47 -128 -92 -150 -190 -23 -105 -4 -198 54 -261 49
-54 75 -63 200 -67 105 -4 121 -2 162 18 25 12 60 40 77 62 l32 39 -2 134 c-1
151 -10 175 -84 231 -92 69 -195 82 -289 34z"/>
<path d="M2480 3410 c-13 -8 -12 -10 3 -10 9 0 17 5 17 10 0 12 -1 12 -20 0z"/>
<path d="M2550 3370 c0 -5 7 -10 15 -10 8 0 15 5 15 10 0 6 -7 10 -15 10 -8 0
-15 -4 -15 -10z"/>
<path d="M2666 3365 c-3 -8 -15 -15 -26 -15 -11 0 -20 -4 -20 -10 0 -16 37
-12 44 5 3 8 12 15 21 15 8 0 15 5 15 10 0 16 -27 12 -34 -5z"/>
<path d="M2516 3351 c-4 -5 -2 -12 3 -15 5 -4 12 -2 15 3 4 5 2 12 -3 15 -5 4
-12 2 -15 -3z"/>
<path d="M2453 3304 c3 -4 2 -16 -4 -26 -8 -14 -8 -23 0 -31 14 -14 17 -10 24
31 5 25 3 32 -10 32 -9 0 -13 -3 -10 -6z"/>
<path d="M2550 3291 c0 -4 11 -6 25 -3 14 2 25 6 25 8 0 2 -11 4 -25 4 -14 0
-25 -4 -25 -9z"/>
<path d="M2689 3286 c7 -8 23 -17 36 -20 14 -4 25 -13 25 -21 0 -7 5 -17 10
-20 6 -4 10 5 10 19 0 19 -5 26 -20 26 -11 0 -20 7 -20 15 0 10 -10 15 -26 15
-22 0 -24 -3 -15 -14z"/>
<path d="M2633 3273 c-7 -3 -13 -15 -13 -28 0 -13 -7 -31 -16 -39 -10 -10 -14
-29 -12 -53 l4 -38 7 30 c4 17 19 51 33 77 24 45 23 60 -3 51z"/>
<path d="M2324 3235 c-9 -23 14 -45 26 -25 5 8 8 19 7 24 -6 17 -27 18 -33 1z"/>
<path d="M2383 3198 c-19 -14 -36 -39 -44 -63 -7 -22 -19 -50 -27 -62 -8 -13
-11 -23 -8 -23 4 0 0 -13 -9 -29 -8 -17 -16 -46 -17 -65 -3 -40 -9 -44 -33
-20 -15 15 -17 15 -22 -4 -8 -30 -5 -37 15 -37 10 -1 15 -7 13 -15 -2 -8 -7
-49 -11 -90 -5 -41 -10 -87 -13 -102 -2 -16 0 -28 4 -28 5 0 9 7 9 15 0 17 16
20 25 5 3 -5 16 -10 28 -10 12 0 31 -7 41 -15 26 -19 65 -19 72 0 4 8 16 15
28 15 31 1 56 24 56 52 0 14 7 31 16 39 13 11 15 37 12 182 -2 124 -6 171 -15
174 -8 3 -13 22 -13 44 0 33 -4 41 -26 49 -36 14 -45 13 -81 -12z"/>
<path d="M2658 3191 l-33 -29 -2 -194 c-1 -162 1 -196 14 -210 10 -11 13 -26
9 -43 -3 -14 -9 -36 -12 -50 -5 -18 -2 -25 9 -25 8 0 17 8 20 19 3 14 11 17
30 14 15 -3 32 -11 38 -19 6 -8 20 -14 30 -14 29 0 101 42 107 62 4 16 15 22
35 19 4 0 7 8 7 19 0 13 7 20 20 20 26 0 26 16 1 23 -14 3 -18 11 -14 26 3 12
1 21 -6 21 -7 0 -11 -14 -9 -35 1 -19 -1 -37 -5 -41 -4 -4 -7 4 -7 19 0 14 -4
28 -9 32 -6 3 -10 23 -9 44 0 38 -17 107 -33 126 -4 6 -17 45 -28 88 -11 43
-28 92 -38 110 -10 17 -18 33 -18 33 0 1 -14 5 -32 8 -26 6 -37 2 -65 -23z"/>
<path d="M2505 3190 c4 -6 11 -8 16 -5 14 9 11 15 -7 15 -8 0 -12 -5 -9 -10z"/>
<path d="M2300 3145 c0 -15 4 -24 10 -20 6 3 10 12 10 20 0 8 -4 17 -10 20 -6
4 -10 -5 -10 -20z"/>
<path d="M2866 3141 c-4 -7 -5 -15 -2 -18 9 -9 19 4 14 18 -4 11 -6 11 -12 0z"/>
<path d="M2530 3105 c0 -14 5 -25 10 -25 6 0 10 11 10 25 0 14 -4 25 -10 25
-5 0 -10 -11 -10 -25z"/>
<path d="M2827 3093 c-12 -11 -8 -23 8 -23 8 0 15 7 15 15 0 16 -12 20 -23 8z"/>
<path d="M2276 3081 c-4 -7 -5 -15 -2 -18 9 -9 19 4 14 18 -4 11 -6 11 -12 0z"/>
<path d="M2530 3040 c0 -16 5 -30 10 -30 6 0 10 14 10 30 0 17 -4 30 -10 30
-5 0 -10 -13 -10 -30z"/>
<path d="M2856 3045 c4 -8 8 -15 10 -15 2 0 4 7 4 15 0 8 -4 15 -10 15 -5 0
-7 -7 -4 -15z"/>
<path d="M2901 2994 c0 -11 3 -14 6 -6 3 7 2 16 -1 19 -3 4 -6 -2 -5 -13z"/>
<path d="M2197 2980 c3 -11 7 -20 9 -20 2 0 4 9 4 20 0 11 -4 20 -9 20 -5 0
-7 -9 -4 -20z"/>
<path d="M2951 2904 c0 -11 3 -14 6 -6 3 7 2 16 -1 19 -3 4 -6 -2 -5 -13z"/>
<path d="M2127 2843 c-4 -3 -7 -25 -7 -48 0 -47 -19 -95 -38 -95 -20 0 -10
-34 11 -38 11 -2 17 3 17 14 0 25 23 84 32 84 4 0 8 20 8 45 0 42 -7 54 -23
38z"/>
<path d="M2561 2822 c-12 -29 -12 -35 3 -50 13 -13 16 -14 16 -2 0 13 2 13 11
0 9 -12 9 -11 4 5 -4 11 -10 33 -14 50 l-7 29 -13 -32z"/>
<path d="M2201 2734 c0 -11 3 -14 6 -6 3 7 2 16 -1 19 -3 4 -6 -2 -5 -13z"/>
<path d="M2590 2734 c0 -8 5 -12 10 -9 6 3 10 10 10 16 0 5 -4 9 -10 9 -5 0
-10 -7 -10 -16z"/>
<path d="M2976 2741 c-4 -5 -2 -20 3 -33 9 -21 10 -21 10 10 1 32 -3 39 -13
23z"/>
<path d="M2538 2663 c7 -3 16 -2 19 1 4 3 -2 6 -13 5 -11 0 -14 -3 -6 -6z"/>
</g>
</svg>
